<svg width="400" height="250" viewBox="0 0 400 250" fill="none" xmlns="http://www.w3.org/2000/svg">
  <rect width="400" height="250" fill="hsl(210 11% 98%)"/>
  <rect x="20" y="20" width="360" height="40" rx="4" fill="hsl(220 85% 60%)"/>
  <circle cx="40" cy="40" r="8" fill="white"/>
  <rect x="60" y="32" width="100" height="16" rx="2" fill="white"/>
  <rect x="300" y="32" width="60" height="16" rx="2" fill="hsla(255 255 255 / 0.7)"/>
  
  <rect x="20" y="80" width="200" height="120" rx="8" fill="white"/>
  <rect x="240" y="80" width="140" height="50" rx="4" fill="hsl(142 69% 58%)"/>
  <rect x="240" y="140" width="140" height="30" rx="4" fill="hsl(215 20% 65%)"/>
  <rect x="240" y="180" width="100" height="20" rx="4" fill="hsl(215 20% 65%)"/>
  
  <rect x="30" y="90" width="180" height="80" rx="4" fill="hsl(215 20% 65%)"/>
  <circle cx="50" cy="110" r="8" fill="hsl(220 85% 60%)"/>
  <rect x="70" y="105" width="80" height="10" rx="2" fill="hsl(220 85% 60%)"/>
  
  <rect x="30" y="180" width="60" height="10" rx="2" fill="hsl(142 69% 58%)"/>
  <rect x="100" y="180" width="60" height="10" rx="2" fill="hsl(142 69% 58%)"/>
  <rect x="170" y="180" width="40" height="10" rx="2" fill="hsl(142 69% 58%)"/>
  
  <rect x="20" y="220" width="360" height="20" rx="4" fill="hsl(215 20% 65%)"/>
</svg>