<svg width="400" height="250" viewBox="0 0 400 250" fill="none" xmlns="http://www.w3.org/2000/svg">
  <rect width="400" height="250" fill="hsl(218 11% 12%)"/>
  <rect x="20" y="20" width="360" height="30" rx="4" fill="hsl(220 85% 60%)"/>
  <rect x="30" y="25" width="80" height="20" rx="2" fill="white"/>
  <rect x="300" y="27" width="70" height="16" rx="2" fill="hsla(255 255 255 / 0.8)"/>
  
  <rect x="50" y="70" width="300" height="100" rx="8" fill="white"/>
  <rect x="70" y="90" width="260" height="20" rx="4" fill="hsl(220 85% 60%)"/>
  <rect x="70" y="120" width="200" height="12" rx="2" fill="hsl(215 20% 65%)"/>
  <rect x="70" y="140" width="180" height="12" rx="2" fill="hsl(215 20% 65%)"/>
  
  <rect x="20" y="190" width="100" height="40" rx="4" fill="hsl(142 69% 58%)"/>
  <rect x="140" y="190" width="100" height="40" rx="4" fill="hsl(142 69% 58%)"/>
  <rect x="260" y="190" width="100" height="40" rx="4" fill="hsl(142 69% 58%)"/>
  
  <circle cx="50" cy="210" r="8" fill="white"/>
  <circle cx="170" cy="210" r="8" fill="white"/>
  <circle cx="290" cy="210" r="8" fill="white"/>
  
  <rect x="70" y="205" width="40" height="10" rx="2" fill="white"/>
  <rect x="190" y="205" width="40" height="10" rx="2" fill="white"/>
  <rect x="310" y="205" width="40" height="10" rx="2" fill="white"/>
</svg>