<svg width="400" height="250" viewBox="0 0 400 250" fill="none" xmlns="http://www.w3.org/2000/svg">
  <rect width="400" height="250" fill="hsl(0 0% 100%)"/>
  <rect x="0" y="0" width="400" height="60" fill="hsl(142 69% 58%)"/>
  <circle cx="60" cy="30" r="20" fill="white"/>
  <rect x="100" y="20" width="120" height="20" rx="4" fill="white"/>
  <rect x="280" y="20" width="80" height="20" rx="4" fill="hsla(255 255 255 / 0.8)"/>
  
  <rect x="20" y="80" width="120" height="140" rx="8" fill="hsl(210 11% 98%)"/>
  <rect x="30" y="90" width="100" height="60" rx="4" fill="hsl(220 85% 60%)"/>
  <rect x="30" y="160" width="100" height="15" rx="2" fill="hsl(215 20% 65%)"/>
  <rect x="30" y="180" width="80" height="12" rx="2" fill="hsl(215 20% 65%)"/>
  <rect x="30" y="200" width="60" height="10" rx="2" fill="hsl(142 69% 58%)"/>
  
  <rect x="160" y="80" width="120" height="140" rx="8" fill="hsl(210 11% 98%)"/>
  <rect x="170" y="90" width="100" height="60" rx="4" fill="hsl(220 85% 60%)"/>
  <rect x="170" y="160" width="100" height="15" rx="2" fill="hsl(215 20% 65%)"/>
  <rect x="170" y="180" width="80" height="12" rx="2" fill="hsl(215 20% 65%)"/>
  <rect x="170" y="200" width="60" height="10" rx="2" fill="hsl(142 69% 58%)"/>
  
  <rect x="300" y="80" width="80" height="140" rx="8" fill="hsl(210 11% 98%)"/>
  <rect x="310" y="90" width="60" height="40" rx="4" fill="hsl(220 85% 60%)"/>
  <rect x="310" y="140" width="60" height="12" rx="2" fill="hsl(215 20% 65%)"/>
  <rect x="310" y="160" width="50" height="10" rx="2" fill="hsl(215 20% 65%)"/>
  <rect x="310" y="180" width="40" height="8" rx="2" fill="hsl(142 69% 58%)"/>
</svg>